<svg xmlns="http://www.w3.org/2000/svg" xmlns:xlink="http://www.w3.org/1999/xlink" width="16" height="16" viewBox="0 0 16 16">
    <defs>
        <clipPath id="clip-path">
            <rect id="Rectangle_2181" data-name="Rectangle 2181" width="16" height="16" transform="translate(15 15)" fill="#fff" stroke="#707070" stroke-width="1"/>
        </clipPath>
    </defs>
    <g id="Mask_Group_259" data-name="Mask Group 259" transform="translate(-15 -15)" clip-path="url(#clip-path)">
        <g id="writing" transform="translate(14.984 15)">
            <path id="Path_2969" data-name="Path 2969" d="M14.084,3.921,12.095,1.932l-3.7,3.734,1.989,1.989Zm0,0" fill="#fff"/>
            <path id="Path_2970" data-name="Path 2970" d="M6.61,8.822a.469.469,0,0,0,.614.613L9.6,8.2,7.841,6.44Zm0,0" fill="#fff"/>
            <path id="Path_2971" data-name="Path 2971" d="M15.878,2.126a.469.469,0,0,0,0-.663L14.553.137a.469.469,0,0,0-.663,0L12.758,1.269l1.989,1.989Zm0,0" fill="#fff"/>
            <path id="Path_2972" data-name="Path 2972" d="M1.422,13.156h.469v2.375a.469.469,0,0,0,.8.331L5.4,13.156h5.462a1.408,1.408,0,0,0,1.406-1.406V7.1L10.787,8.574a1.393,1.393,0,0,1-.449.3L7.655,10.268a1.48,1.48,0,0,1-.614.142,1.385,1.385,0,0,1-.4-.066H3.3a.469.469,0,1,1,0-.937H5.671a1.4,1.4,0,0,1,.075-.944L7.192,5.653a1.282,1.282,0,0,1,.271-.384L8.951,3.781H1.422A1.408,1.408,0,0,0,.016,5.187V11.75a1.408,1.408,0,0,0,1.406,1.406Zm0,0" fill="#fff"/>
        </g>
    </g>
</svg>
