<svg xmlns="http://www.w3.org/2000/svg" xmlns:xlink="http://www.w3.org/1999/xlink" width="16" height="16" viewBox="0 0 16 16">
    <defs>
        <clipPath id="clip-path">
            <rect id="Rectangle_2082" data-name="Rectangle 2082" width="16" height="16" transform="translate(25 561)" fill="#fff" stroke="#707070" stroke-width="1"/>
        </clipPath>
    </defs>
    <g id="Mask_Group_235" data-name="Mask Group 235" transform="translate(-25 -561)" clip-path="url(#clip-path)">
        <g id="pharmacy_2_" data-name="pharmacy (2)" transform="translate(25 561)">
            <g id="Group_2750" data-name="Group 2750">
                <g id="Group_2749" data-name="Group 2749">
                    <path id="Path_2891" data-name="Path 2891" d="M15.733,6.142,8.4.809a.608.608,0,0,0-.8,0L.267,6.142a.673.673,0,0,0,.4,1.2H2v7.333a.63.63,0,0,0,.667.667H13.333A.63.63,0,0,0,14,14.675V7.342h1.333A.673.673,0,0,0,15.733,6.142ZM8,14.008a4,4,0,1,1,4-4A4.011,4.011,0,0,1,8,14.008Z" fill="#fff"/>
                </g>
            </g>
            <g id="Group_2752" data-name="Group 2752">
                <g id="Group_2751" data-name="Group 2751">
                    <path id="Path_2892" data-name="Path 2892" d="M9,9.008v-2H7v2H5v2H7v2H9v-2h2v-2Z" fill="#fff"/>
                </g>
            </g>
        </g>
    </g>
</svg>
