<svg xmlns="http://www.w3.org/2000/svg" xmlns:xlink="http://www.w3.org/1999/xlink" width="19" height="19" viewBox="0 0 19 19">
    <defs>
        <clipPath id="clip-path">
            <rect id="Rectangle_2191" data-name="Rectangle 2191" width="19" height="19" transform="translate(14 14)" fill="#373737" stroke="#707070" stroke-width="1"/>
        </clipPath>
    </defs>
    <g id="Mask_Group_2401" data-name="Mask Group 2401" transform="translate(-14 -14)" clip-path="url(#clip-path)">
        <g id="globe_2_" data-name="globe (2)" transform="translate(14 14)">
            <g id="Group_2998" data-name="Group 2998">
                <g id="Group_2997" data-name="Group 2997">
                    <path id="Path_2995" data-name="Path 2995" d="M11.871,3.018A7.691,7.691,0,0,1,10.8.1,9.462,9.462,0,0,0,9.5,0,9.462,9.462,0,0,0,2.517,3.136c.9-.04,1.9-.065,2.32.648.388.66-.029,1.486-.376,2.049-.94,1.527-.876,2-.834,2.1.059.149.427.252.752.341a6.207,6.207,0,0,1,.633.215,1.849,1.849,0,0,1,.471-1.715,1.605,1.605,0,0,1,2.052-.1c.531.266.614.257.767.1.4-.4,1.017-1.11,3.213-1.1,1.209,0,1.323-.1,1.323-.383A10.711,10.711,0,0,0,11.871,3.018Z" fill="#373737"/>
                </g>
            </g>
            <g id="Group_3000" data-name="Group 3000">
                <g id="Group_2999" data-name="Group 2999">
                    <path id="Path_2996" data-name="Path 2996" d="M13.3,11.665A3.219,3.219,0,0,1,10.844,9.97a1.48,1.48,0,0,0-.258-.361h0a.934.934,0,0,0-.631.26,3.093,3.093,0,0,1-1.722.657,1.092,1.092,0,0,1,.081.405v.94a3.347,3.347,0,0,0,.627.41c.558.32,1.252.716,1.252,1.469,0,3.077.444,4.512.755,5.131l.036-.006c0-.809,0-2.179,0-2.51,0-.722.514-1.224,1.139-1.806,1.866-1.737,1.6-2.656,1.647-2.768A2.762,2.762,0,0,0,13.3,11.665Z" fill="#373737"/>
                </g>
            </g>
            <g id="Group_3002" data-name="Group 3002">
                <g id="Group_3001" data-name="Group 3001">
                    <path id="Path_2997" data-name="Path 2997" d="M9.079,13.75c-.032-.125-.477-.38-.692-.5-.529-.3-1.191-.679-1.191-1.376v-.94A11.784,11.784,0,0,0,4.083,9.35,1.949,1.949,0,0,1,2.591,8.343c-.269-.683.007-1.609.922-3.095.42-.682.363-.9.362-.906A3.6,3.6,0,0,0,2.5,4.25a7.33,7.33,0,0,1-.864,0A9.438,9.438,0,0,0,0,9.5,9.537,9.537,0,0,0,9.5,19c.084,0,.165-.01.248-.013A15.786,15.786,0,0,1,9.079,13.75Z" fill="#373737"/>
                </g>
            </g>
            <g id="Group_3004" data-name="Group 3004">
                <g id="Group_3003" data-name="Group 3003">
                    <path id="Path_2998" data-name="Path 2998" d="M11.916.324a14.026,14.026,0,0,0,.949,2.2,8.2,8.2,0,0,1,1.086,2.772c0,1.5-1.525,1.5-2.436,1.5-1.346,0-1.794.145-2.426.777a1.6,1.6,0,0,1-2.052.1c-.532-.266-.613-.257-.767-.1a.821.821,0,0,0-.121.909c.456,1.1,2.1,1.255,3.153.492a2,2,0,0,1,1.273-.471,1.441,1.441,0,0,1,1.225.9,2.149,2.149,0,0,0,1.736,1.18,1.646,1.646,0,0,1,1.2.654,1.707,1.707,0,0,1,.128,1.1,5.373,5.373,0,0,1-1.978,3.042c-.3.28-.815.749-.82.916,0,.348,0,1.533,0,2.345A9.56,9.56,0,0,0,19,9.5,9.548,9.548,0,0,0,11.916.324Z" fill="#373737"/>
                </g>
            </g>
        </g>
    </g>
</svg>
