<svg xmlns="http://www.w3.org/2000/svg" xmlns:xlink="http://www.w3.org/1999/xlink" width="16" height="16" viewBox="0 0 16 16">
  <defs>
    <clipPath id="clip-path">
      <rect id="Rectangle_1988" data-name="Rectangle 1988" width="16" height="16" transform="translate(15 15)" fill="#fff" stroke="#707070" stroke-width="1"/>
    </clipPath>
  </defs>
  <g id="Mask_Group_172" data-name="Mask Group 172" transform="translate(-15 -15)" clip-path="url(#clip-path)">
    <g id="chat" transform="translate(15 15)">
      <g id="Group_2499" data-name="Group 2499">
        <path id="Path_2790" data-name="Path 2790" d="M8,0A8.009,8.009,0,0,0,0,8v7.5a.5.5,0,0,0,.5.5H8A8,8,0,0,0,8,0Zm.5,10h-4a.5.5,0,0,1,0-1h4a.5.5,0,0,1,0,1Zm3-3h-7a.5.5,0,0,1,0-1h7a.5.5,0,0,1,0,1Z" fill="#fff"/>
      </g>
    </g>
  </g>
</svg>
