<svg xmlns="http://www.w3.org/2000/svg" viewBox="0 0 16 16" width="16" height="16">
	<defs>
		<clipPath clipPathUnits="userSpaceOnUse" id="cp1">
			<path d="M0 0L16 0L16 16L0 16L0 0Z" />
		</clipPath>
	</defs>
	<style>
		tspan { white-space:pre }
		.shp0 { fill: #373737 } 
	</style>
	<g id="Clip-Path: Mask_Group_172" clip-path="url(#cp1)">
		<g id="Mask_Group_172">
			<g id="chat">
				<g id="Group_2499">
					<path id="Path_2790" fill-rule="evenodd" class="shp0" d="M8 0C10.12 0 12.16 0.84 13.66 2.34C15.16 3.84 16 5.88 16 8C16 10.12 15.16 12.16 13.66 13.66C12.16 15.16 10.12 16 8 16L0.5 16C0.43 16 0.37 15.99 0.31 15.96C0.25 15.94 0.19 15.9 0.15 15.85C0.1 15.81 0.06 15.75 0.04 15.69C0.01 15.63 0 15.57 0 15.5L0 8C0 6.95 0.21 5.91 0.61 4.94C1.01 3.97 1.6 3.09 2.35 2.35C3.09 1.6 3.97 1.01 4.94 0.61C5.91 0.21 6.95 0 8 0ZM8.85 9.85C8.95 9.76 9 9.63 9 9.5C9 9.37 8.95 9.24 8.85 9.15C8.76 9.05 8.63 9 8.5 9L4.5 9C4.37 9 4.24 9.05 4.15 9.15C4.05 9.24 4 9.37 4 9.5C4 9.63 4.05 9.76 4.15 9.85C4.24 9.95 4.37 10 4.5 10L8.5 10C8.63 10 8.76 9.95 8.85 9.85ZM11.85 6.85C11.95 6.76 12 6.63 12 6.5C12 6.37 11.95 6.24 11.85 6.15C11.76 6.05 11.63 6 11.5 6L4.5 6C4.37 6 4.24 6.05 4.15 6.15C4.05 6.24 4 6.37 4 6.5C4 6.63 4.05 6.76 4.15 6.85C4.24 6.95 4.37 7 4.5 7L11.5 7C11.63 7 11.76 6.95 11.85 6.85Z" />
				</g>
			</g>
		</g>
	</g>
</svg>