<svg xmlns="http://www.w3.org/2000/svg" xmlns:xlink="http://www.w3.org/1999/xlink" width="16" height="16" viewBox="0 0 16 16">
  <defs>
    <style>
      .cls-1 {
        fill: #fff;
      }

      .cls-2 {
        clip-path: url(#clip-path);
      }
    </style>
    <clipPath id="clip-path">
      <rect id="Rectangle_1972" data-name="Rectangle 1972" class="cls-1" width="16" height="16"/>
    </clipPath>
  </defs>
  <g id="Mask_Group_155" data-name="Mask Group 155" class="cls-2">
    <g id="patient">
      <path id="Path_2766" data-name="Path 2766" class="cls-1" d="M9.667,16a.667.667,0,0,1-.555-.3L7.977,14H6.667a.667.667,0,1,1,0-1.333H8.333a.668.668,0,0,1,.555.3l.7,1.044,1.486-2.973a.668.668,0,0,1,.571-.368.658.658,0,0,1,.6.323L14.044,14h1.289a.667.667,0,0,1,0,1.333H13.667a.666.666,0,0,1-.571-.323L11.72,12.718l-1.457,2.914A.667.667,0,0,1,9.708,16Z"/>
      <circle id="Ellipse_27" data-name="Ellipse 27" class="cls-1" cx="3.333" cy="3.333" r="3.333" transform="translate(2.667)"/>
      <path id="Path_2767" data-name="Path 2767" class="cls-1" d="M4.667,13.333a2,2,0,0,1,2-2H8.333a2,2,0,0,1,.972.251l.573-1.146a1.989,1.989,0,0,1,1.476-1.063A3.323,3.323,0,0,0,8.667,8H3.333A3.334,3.334,0,0,0,0,11.333V13.5a.5.5,0,0,0,.5.5H4.789A1.977,1.977,0,0,1,4.667,13.333Z"/>
    </g>
  </g>
</svg>
